o Plane
v -1.000000 0.000000 0.000000
v 1.000000 0.000000 0.000000
v -0.500000 0.000000 -0.125000
v 0.500000 0.000000 -0.125000
v -0.750000 0.000000 -0.080000
v 0.750000 0.000000 -0.080000
v 0.500000 0.000000 0.125000
v -0.500000 0.000000 0.125000
v -0.750000 0.000000 0.080000
v 0.750000 0.000000 0.080000
vt 0.873960 0.001288
vt 0.998718 0.516474
vt 0.873960 0.995592
vt 0.749202 0.001773
vt 0.749202 0.998227
vt 0.250170 0.998226
vt 0.250170 0.001773
vt 0.125413 0.001288
vt 0.125412 0.997179
vt 0.000655 0.516473
vn 0.0000 1.0000 0.0000
s off
f 10/1/1 2/2/1 6/3/1
f 7/4/1 4/5/1 3/6/1 8/7/1
f 9/8/1 8/7/1 3/6/1 5/9/1
f 1/10/1 9/8/1 5/9/1
f 7/4/1 10/1/1 6/3/1 4/5/1
