o Circle
v 0.000000 0.000000 -1.000000
v -0.195090 0.000000 -0.980785
v -0.382683 0.000000 -0.923880
v -0.555570 0.000000 -0.831470
v -0.707107 0.000000 -0.707107
v -0.831470 0.000000 -0.555570
v -0.923880 0.000000 -0.382683
v -0.980785 0.000000 -0.195090
v -1.000000 0.000000 0.000000
v -0.980785 0.000000 0.195090
v -0.923880 0.000000 0.382683
v -0.831470 0.000000 0.555570
v -0.707107 0.000000 0.707107
v -0.555570 0.000000 0.831470
v -0.382683 0.000000 0.923880
v -0.195090 0.000000 0.980785
v 0.000000 0.000000 1.000000
v 0.195090 0.000000 0.980785
v 0.382683 0.000000 0.923880
v 0.555570 0.000000 0.831470
v 0.707107 0.000000 0.707107
v 0.831470 0.000000 0.555570
v 0.923880 0.000000 0.382683
v 0.980785 0.000000 0.195090
v 1.000000 0.000000 0.000000
v 0.980785 0.000000 -0.195090
v 0.923880 0.000000 -0.382683
v 0.831470 0.000000 -0.555570
v 0.707107 0.000000 -0.707107
v 0.555570 0.000000 -0.831470
v 0.382683 0.000000 -0.923880
v 0.195090 0.000000 -0.980785
v 0.000000 1.000000 -1.000000
v -0.195090 1.000000 -0.980785
v -0.382683 1.000000 -0.923880
v -0.555570 1.000000 -0.831470
v -0.707107 1.000000 -0.707107
v -0.831470 1.000000 -0.555570
v -0.923880 1.000000 -0.382683
v -0.980785 1.000000 -0.195090
v -1.000000 1.000000 0.000000
v -0.980785 1.000000 0.195090
v -0.923880 1.000000 0.382683
v -0.831470 1.000000 0.555570
v -0.707107 1.000000 0.707107
v -0.555570 1.000000 0.831470
v -0.382683 1.000000 0.923880
v -0.195090 1.000000 0.980785
v 0.000000 1.000000 1.000000
v 0.195090 1.000000 0.980785
v 0.382683 1.000000 0.923880
v 0.555570 1.000000 0.831470
v 0.707107 1.000000 0.707107
v 0.831470 1.000000 0.555570
v 0.923880 1.000000 0.382683
v 0.980785 1.000000 0.195090
v 1.000000 1.000000 0.000000
v 0.980785 1.000000 -0.195090
v 0.923880 1.000000 -0.382683
v 0.831470 1.000000 -0.555570
v 0.707107 1.000000 -0.707107
v 0.555570 1.000000 -0.831470
v 0.382683 1.000000 -0.923880
v 0.195090 1.000000 -0.980785
vn 0.9952 -0.0000 0.0980
vn -0.8819 -0.0000 -0.4714
vn 0.9952 -0.0000 -0.0980
vn -0.9569 -0.0000 -0.2903
vn 0.9569 -0.0000 -0.2903
vn -0.9952 -0.0000 -0.0980
vn 0.8819 -0.0000 -0.4714
vn -0.9952 -0.0000 0.0980
vn 0.7730 -0.0000 -0.6344
vn -0.9569 -0.0000 0.2903
vn 0.6344 -0.0000 -0.7730
vn -0.8819 -0.0000 0.4714
vn 0.4714 -0.0000 -0.8819
vn 0.0980 -0.0000 0.9952
vn -0.7730 -0.0000 0.6344
vn 0.2903 -0.0000 -0.9569
vn 0.2903 -0.0000 0.9569
vn -0.6344 -0.0000 0.7730
vn 0.0980 -0.0000 -0.9952
vn 0.4714 -0.0000 0.8819
vn -0.4714 -0.0000 0.8819
vn -0.0980 -0.0000 -0.9952
vn 0.6344 -0.0000 0.7730
vn -0.2903 -0.0000 0.9569
vn -0.2903 -0.0000 -0.9569
vn 0.7730 -0.0000 0.6344
vn -0.0980 -0.0000 0.9952
vn -0.4714 -0.0000 -0.8819
vn 0.8819 -0.0000 0.4714
vn -0.6344 -0.0000 -0.7730
vn 0.9569 -0.0000 0.2903
vn -0.7730 -0.0000 -0.6344
vt 0.000000 0.000000
vt 1.000000 0.000000
vt 1.000000 1.000000
vt 0.000000 1.000000
s 0
f 9/1/1 8/2/1 40/3/1 41/4/1
f 23/1/2 22/2/2 54/3/2 55/4/2
f 10/1/3 9/2/3 41/3/3 42/4/3
f 24/1/4 23/2/4 55/3/4 56/4/4
f 11/1/5 10/2/5 42/3/5 43/4/5
f 25/1/6 24/2/6 56/3/6 57/4/6
f 12/1/7 11/2/7 43/3/7 44/4/7
f 26/1/8 25/2/8 57/3/8 58/4/8
f 13/1/9 12/2/9 44/3/9 45/4/9
f 27/1/10 26/2/10 58/3/10 59/4/10
f 14/1/11 13/2/11 45/3/11 46/4/11
f 28/1/12 27/2/12 59/3/12 60/4/12
f 15/1/13 14/2/13 46/3/13 47/4/13
f 2/1/14 1/2/14 33/3/14 34/4/14
f 29/1/15 28/2/15 60/3/15 61/4/15
f 16/1/16 15/2/16 47/3/16 48/4/16
f 3/1/17 2/2/17 34/3/17 35/4/17
f 30/1/18 29/2/18 61/3/18 62/4/18
f 17/1/19 16/2/19 48/3/19 49/4/19
f 4/1/20 3/2/20 35/3/20 36/4/20
f 31/1/21 30/2/21 62/3/21 63/4/21
f 18/1/22 17/2/22 49/3/22 50/4/22
f 5/1/23 4/2/23 36/3/23 37/4/23
f 32/1/24 31/2/24 63/3/24 64/4/24
f 19/1/25 18/2/25 50/3/25 51/4/25
f 6/1/26 5/2/26 37/3/26 38/4/26
f 1/1/27 32/2/27 64/3/27 33/4/27
f 20/1/28 19/2/28 51/3/28 52/4/28
f 7/1/29 6/2/29 38/3/29 39/4/29
f 21/1/30 20/2/30 52/3/30 53/4/30
f 8/1/31 7/2/31 39/3/31 40/4/31
f 22/1/32 21/2/32 53/3/32 54/4/32
